P2
# P2 example: horizontal gradient
5 5
255
0   64  128 192 255
0   64  128 192 255
0   64  128 192 255
0   64  128 192 255
0   64  128 192 255
